<?xml version="1.0" encoding="utf-8"?>
<!-- Generator: Adobe Illustrator 24.0.2, SVG Export Plug-In . SVG Version: 6.00 Build 0)  -->
<svg version="1.1" id="Layer_1" xmlns="http://www.w3.org/2000/svg" xmlns:xlink="http://www.w3.org/1999/xlink" x="0px" y="0px"
	 viewBox="0 0 103 88" style="enable-background:new 0 0 103 88;" xml:space="preserve">
<style type="text/css">
	.st0{fill:#E30B13;}
	.st1{fill:#FFFFFF;}
	.st2{fill:#ED3D7F;}
	.st3{fill:#FCB833;}
	.st4{fill:#F6921E;}
	.st5{fill:#7B1B67;}
	.st6{fill:#F05A22;}
	.st7{fill:#C30D42;}
</style>
<g>
	<g>
		<path class="st0" d="M37.6,52c-2.6-1.1-3.2-2.4-3.4-3.2c0,0,0-0.1,0-0.1c0,0,0-0.1,0-0.1l0,0c0,0,0-0.1,0-0.1c0,0,0,0,0-0.1l0,0
			c0-0.1,0-0.1,0-0.2c0-0.1,0-0.1,0-0.2l-0.1,0l0.1,0c0.1-0.5,0.3-1,0.6-1.5l0.1-0.1c1.4-2,4.7-3.9,8.7-5.1c2.8-0.8,5.6-1.1,7.8-0.9
			c2.2,0.2,3.5,0.9,3.8,2c0.3,1.1-0.7,2.6-2.8,4l-0.1,0.1l1.8,1.3c0,0,1.8,1.4,3.8-0.6c1.9-2.1,2.6-4.3,2.1-6.1
			c-0.6-2.2-2.8-3.8-6.1-4.5c-3.3-0.7-7.4-0.5-11.5,0.7c-4.1,1.1-7.7,3.1-10.2,5.4c-2.5,2.4-3.5,4.9-2.9,7c0.2,0.9,0.8,1.7,1.6,2.4
			h-27c-0.4,0-0.9,0.2-1.3,0.6c-1,1-1.6,2.9-1.6,3.1l0,0.1h19.6V57c-0.6,0.1-10.6,2.6-16.3,8.4c-0.8,0.8-0.9,2-0.3,3
			c2.1,3,7.6,8.7,21.2,12.7l0.1,0V57l0-0.1v-1.1H33v21.7c0,0.5,0.3,1.1,0.8,1.6c1.3,1.4,3.7,2,3.8,2l0.1,0V55.8h21.6V57
			c-0.6,0.1-10.6,2.6-16.3,8.4c-0.8,0.8-0.9,2-0.3,3c2.1,3,7.6,8.7,21.2,12.7l0.1,0V57l0-0.1v-1.1h0c0.4,0,0.9-0.2,1.3-0.6
			c0.9-0.9,1.5-2.6,1.6-3.1l0-0.1H37.6z M20.6,74.5c-0.9-0.3-6.2-2.3-10.4-6.4C10,68,10,67.8,10,67.6c0-0.2,0.1-0.4,0.2-0.5
			c1.4-1.3,5.3-4.4,10.4-5.1V74.5z M59.4,74.5c-0.9-0.3-6.2-2.3-10.4-6.4c-0.1-0.1-0.2-0.3-0.2-0.5c0-0.2,0.1-0.4,0.2-0.5
			c1.4-1.3,5.3-4.4,10.4-5.1V74.5z"/>
		<ellipse class="st0" cx="11.2" cy="81.7" rx="3.1" ry="3.2"/>
	</g>
	<g>
		<polygon class="st1" points="65.7,3.1 65.7,24.7 81.6,33.9 64.8,43.6 83.4,54.4 101.2,44.1 101.2,23.6 		"/>
		<polygon class="st2" points="66.6,43.6 83.4,53.4 83.4,33.9 		"/>
		<polygon class="st3" points="66.6,4.7 66.6,24.2 83.4,14.4 		"/>
		<polygon class="st4" points="83.4,14.4 83.4,14.4 66.6,24.2 83.4,33.9 		"/>
		<polygon class="st5" points="100.3,43.6 100.3,24.2 83.4,33.9 		"/>
		<polygon class="st6" points="83.4,33.9 83.4,33.9 100.3,24.2 83.4,14.4 		"/>
		<polygon class="st7" points="100.3,43.6 100.3,43.6 83.4,33.9 83.4,53.4 		"/>
	</g>
</g>
</svg>
